<svg xmlns="http://www.w3.org/2000/svg" viewBox="0 0 400 160">
  <defs>
    <linearGradient id="logoGradient" x1="0%" y1="0%" x2="100%" y2="100%">
      <stop offset="0%" stop-color="#6366f1"/>
      <stop offset="100%" stop-color="#8b5cf6"/>
    </linearGradient>
    <linearGradient id="logoGradient2" x1="0%" y1="0%" x2="100%" y2="0%">
      <stop offset="0%" stop-color="#06b6d4"/>
      <stop offset="100%" stop-color="#6366f1"/>
    </linearGradient>
    <linearGradient id="walletFill" x1="0%" y1="0%" x2="100%" y2="100%">
      <stop offset="0%" stop-color="rgba(99, 102, 241, 0.15)"/>
      <stop offset="100%" stop-color="rgba(139, 92, 246, 0.15)"/>
    </linearGradient>
    <filter id="glow">
      <feGaussianBlur stdDeviation="2" result="coloredBlur"/>
      <feMerge>
        <feMergeNode in="coloredBlur"/>
        <feMergeNode in="SourceGraphic"/>
      </feMerge>
    </filter>
    <filter id="textShadow" x="-50%" y="-50%" width="200%" height="200%">
      <feDropShadow dx="0" dy="2" stdDeviation="3" flood-color="rgba(0,0,0,0.3)" flood-opacity="0.3"/>
    </filter>
  </defs>
  <!-- Ícone da Carteira -->
  <g transform="translate(12, 15)" filter="url(#glow)">
    <!-- Preenchimento sutil -->
    <rect x="5" y="25" width="120" height="100" rx="12" fill="url(#walletFill)"/>
    <!-- Corpo principal -->
    <rect x="0" y="20" width="120" height="100" rx="12" fill="none" stroke="url(#logoGradient)" stroke-width="4" stroke-linecap="round" stroke-linejoin="round"/>
    <!-- Aba superior -->
    <path d="M 0 45 Q 0 20 14 20 L 106 20 Q 120 20 120 45 L 120 60 L 0 60 Z" fill="none" stroke="url(#logoGradient)" stroke-width="4" stroke-linecap="round" stroke-linejoin="round"/>
    <path d="M 9 45 Q 9 28 18 28 L 101 28 Q 110 28 110 45" fill="none" stroke="url(#logoGradient)" stroke-width="2" opacity="0.5" stroke-linecap="round"/>
    <!-- Linha divisória -->
    <line x1="5" y1="60" x2="115" y2="60" stroke="url(#logoGradient)" stroke-width="2" opacity="0.4" stroke-linecap="round"/>
    <!-- Fecho/botão -->
    <rect x="88" y="70" width="30" height="28" rx="14" fill="none" stroke="url(#logoGradient)" stroke-width="3.5" stroke-linecap="round"/>
    <circle cx="103" cy="84" r="7" fill="url(#logoGradient)" opacity="0.9"/>
    <circle cx="103" cy="84" r="3.5" fill="#0a0e1a" opacity="0.6"/>
    <!-- Circuitos -->
    <path d="M 14 75 L 41 75 L 50 84 L 72 84" fill="none" stroke="url(#logoGradient2)" stroke-width="3" stroke-linecap="round" stroke-linejoin="round"/>
    <circle cx="14" cy="75" r="3" fill="url(#logoGradient2)"/>
    <circle cx="72" cy="84" r="3" fill="url(#logoGradient2)"/>
    <circle cx="50" cy="84" r="2" fill="url(#logoGradient2)"/>
    <path d="M 14 93 L 56 93 L 65 102 L 87 102" fill="none" stroke="url(#logoGradient2)" stroke-width="3" stroke-linecap="round" stroke-linejoin="round"/>
    <circle cx="14" cy="93" r="3" fill="url(#logoGradient2)"/>
    <circle cx="87" cy="102" r="3" fill="url(#logoGradient2)"/>
    <circle cx="65" cy="102" r="2" fill="url(#logoGradient2)"/>
    <path d="M 14 111 L 37 111 L 46 120" fill="none" stroke="url(#logoGradient2)" stroke-width="3" stroke-linecap="round" stroke-linejoin="round"/>
    <circle cx="14" cy="111" r="3" fill="url(#logoGradient2)"/>
    <circle cx="46" cy="120" r="3" fill="url(#logoGradient2)"/>
    <!-- Chip central -->
    <rect x="70" y="75" width="20" height="20" rx="3" fill="none" stroke="url(#logoGradient2)" stroke-width="2" stroke-linecap="round"/>
    <line x1="80" y1="75" x2="80" y2="68" stroke="url(#logoGradient2)" stroke-width="2" stroke-linecap="round"/>
    <line x1="80" y1="95" x2="80" y2="102" stroke="url(#logoGradient2)" stroke-width="2" stroke-linecap="round"/>
    <line x1="70" y1="85" x2="63" y2="85" stroke="url(#logoGradient2)" stroke-width="2" stroke-linecap="round"/>
    <line x1="90" y1="85" x2="97" y2="85" stroke="url(#logoGradient2)" stroke-width="2" stroke-linecap="round"/>
    <circle cx="80" cy="85" r="3.5" fill="url(#logoGradient2)" opacity="0.4"/>
    <!-- Linhas decorativas -->
    <line x1="18" y1="125" x2="68" y2="125" stroke="url(#logoGradient)" stroke-width="2.5" opacity="0.4" stroke-linecap="round"/>
    <line x1="18" y1="132" x2="52" y2="132" stroke="url(#logoGradient)" stroke-width="1.5" opacity="0.25" stroke-linecap="round"/>
  </g>
  <!-- Texto "Smart Finance" em duas linhas -->
  <text x="145" y="78" font-family="'Inter', -apple-system, BlinkMacSystemFont, 'Segoe UI', sans-serif" font-size="62" font-weight="800" fill="url(#logoGradient)" letter-spacing="-1" filter="url(#textShadow)">Smart</text>
  <text x="145" y="142" font-family="'Inter', -apple-system, BlinkMacSystemFont, 'Segoe UI', sans-serif" font-size="62" font-weight="800" fill="url(#logoGradient)" letter-spacing="-1" filter="url(#textShadow)">Finance</text>
</svg>