<svg xmlns="http://www.w3.org/2000/svg" viewBox="0 0 500 200">
 <defs>
 <linearGradient id="logoGradient" x1="0%" y1="0%" x2="100%" y2="100%">
 <stop offset="0%" stop-color="#6366f1"/>
 <stop offset="100%" stop-color="#8b5cf6"/>
 </linearGradient>
 <linearGradient id="logoGradient2" x1="0%" y1="0%" x2="100%" y2="0%">
 <stop offset="0%" stop-color="#06b6d4"/>
 <stop offset="100%" stop-color="#6366f1"/>
 </linearGradient>
 <linearGradient id="walletFill" x1="0%" y1="0%" x2="100%" y2="100%">
 <stop offset="0%" stop-color="rgba(99, 102, 241, 0.15)"/>
 <stop offset="100%" stop-color="rgba(139, 92, 246, 0.15)"/>
 </linearGradient>
 <filter id="glow">
 <feGaussianBlur stdDeviation="2" result="coloredBlur"/>
 <feMerge>
 <feMergeNode in="coloredBlur"/>
 <feMergeNode in="SourceGraphic"/>
 </feMerge>
 </filter>
 </defs>

<!-- Ícone da Carteira Aprimorado -->
<g transform="translate(20, 20)" filter="url(#glow)">
 <!-- Preenchimento sutil -->
 <rect x="5" y="25" width="130" height="110" rx="12" fill="url(#walletFill)"/>
 
 <!-- Corpo principal -->
 <rect x="0" y="20" width="130" height="110" rx="12" fill="none" stroke="url(#logoGradient)" stroke-width="4" stroke-linecap="round" stroke-linejoin="round"/>
 
 <!-- Aba superior com detalhe interno -->
 <path d="M 0 45 Q 0 20 15 20 L 115 20 Q 130 20 130 45 L 130 60 L 0 60 Z" fill="none" stroke="url(#logoGradient)" stroke-width="4" stroke-linecap="round" stroke-linejoin="round"/>
 <path d="M 10 45 Q 10 28 20 28 L 110 28 Q 120 28 120 45" fill="none" stroke="url(#logoGradient)" stroke-width="2" opacity="0.5" stroke-linecap="round"/>
 
 <!-- Linha divisória -->
 <line x1="5" y1="60" x2="125" y2="60" stroke="url(#logoGradient)" stroke-width="2" opacity="0.4" stroke-linecap="round"/>
 
 <!-- Fecho/botão -->
 <rect x="95" y="70" width="35" height="30" rx="15" fill="none" stroke="url(#logoGradient)" stroke-width="3.5" stroke-linecap="round"/>
 <circle cx="112" cy="85" r="8" fill="url(#logoGradient)" opacity="0.9"/>
 <circle cx="112" cy="85" r="4" fill="#0a0e1a" opacity="0.6"/>
 
 <!-- Circuitos - Linha 1 -->
 <path d="M 15 75 L 45 75 L 55 85 L 80 85" fill="none" stroke="url(#logoGradient2)" stroke-width="3" stroke-linecap="round" stroke-linejoin="round"/>
 <circle cx="15" cy="75" r="3" fill="url(#logoGradient2)"/>
 <circle cx="80" cy="85" r="3" fill="url(#logoGradient2)"/>
 <circle cx="55" cy="85" r="2" fill="url(#logoGradient2)"/>
 
 <!-- Circuitos - Linha 2 -->
 <path d="M 15 95 L 60 95 L 70 105 L 95 105" fill="none" stroke="url(#logoGradient2)" stroke-width="3" stroke-linecap="round" stroke-linejoin="round"/>
 <circle cx="15" cy="95" r="3" fill="url(#logoGradient2)"/>
 <circle cx="95" cy="105" r="3" fill="url(#logoGradient2)"/>
 <circle cx="70" cy="105" r="2" fill="url(#logoGradient2)"/>
 
 <!-- Circuitos - Linha 3 -->
 <path d="M 15 115 L 40 115 L 50 125" fill="none" stroke="url(#logoGradient2)" stroke-width="3" stroke-linecap="round" stroke-linejoin="round"/>
 <circle cx="15" cy="115" r="3" fill="url(#logoGradient2)"/>
 <circle cx="50" cy="125" r="3" fill="url(#logoGradient2)"/>
 
 <!-- Chip central -->
 <rect x="75" y="75" width="22" height="22" rx="3" fill="none" stroke="url(#logoGradient2)" stroke-width="2" stroke-linecap="round"/>
 <line x1="86" y1="75" x2="86" y2="68" stroke="url(#logoGradient2)" stroke-width="2" stroke-linecap="round"/>
 <line x1="86" y1="97" x2="86" y2="104" stroke="url(#logoGradient2)" stroke-width="2" stroke-linecap="round"/>
 <line x1="75" y1="86" x2="68" y2="86" stroke="url(#logoGradient2)" stroke-width="2" stroke-linecap="round"/>
 <line x1="97" y1="86" x2="104" y2="86" stroke="url(#logoGradient2)" stroke-width="2" stroke-linecap="round"/>
 <circle cx="86" cy="86" r="4" fill="url(#logoGradient2)" opacity="0.4"/>
 
 <!-- Linhas decorativas -->
 <line x1="20" y1="135" x2="75" y2="135" stroke="url(#logoGradient)" stroke-width="2.5" opacity="0.4" stroke-linecap="round"/>
 <line x1="20" y1="142" x2="55" y2="142" stroke="url(#logoGradient)" stroke-width="1.5" opacity="0.25" stroke-linecap="round"/>
</g>

<!-- Texto "Smart Finance" em duas linhas -->
<text x="170" y="95" font-family="'Inter', -apple-system, BlinkMacSystemFont, 'Segoe UI', sans-serif" font-size="52" font-weight="800" fill="url(#logoGradient)" letter-spacing="-1">
Smart
</text>
<text x="170" y="145" font-family="'Inter', -apple-system, BlinkMacSystemFont, 'Segoe UI', sans-serif" font-size="52" font-weight="800" fill="url(#logoGradient)" letter-spacing="-1">
Finance
</text>
</svg>